<svg xmlns="http://www.w3.org/2000/svg" width="1400" height="720" viewBox="0 0 1400 720" role="img" aria-label="Automatic Loop And Dashboard Monitoring">
<defs>
<filter id="shadow" x="-20%" y="-20%" width="140%" height="140%"><feDropShadow dx="0" dy="2" stdDeviation="2" flood-color="#101828" flood-opacity=".14"/></filter>
<marker id="arrow" markerWidth="10" markerHeight="10" refX="8" refY="5" orient="auto" markerUnits="strokeWidth"><path d="M 0 0 L 10 5 L 0 10 z" fill="#748094"/></marker>
</defs>
<rect width="100%" height="100%" fill="#f6f7f9"/>
<text x="40.0" y="46.0" fill="#15181d" font-family="Segoe UI, Arial, sans-serif" font-size="26" font-weight="760" text-anchor="start">Automatic Loop And Dashboard Monitoring</text>
<text x="40.0" y="74.0" fill="#657080" font-family="Segoe UI, Arial, sans-serif" font-size="13" font-weight="500" text-anchor="start">The scheduler starts the run; the dashboard watches status, reports and review outputs</text>
<rect x="90.0" y="120.0" width="170.0" height="56.0" rx="8" fill="#ffffff" stroke="#d5dce6" filter="url(#shadow)"/>
<rect x="90.0" y="120.0" width="5" height="56.0" rx="2.5" fill="#2563eb"/>
<text x="106.0" y="145.0" fill="#15181d" font-family="Segoe UI, Arial, sans-serif" font-size="14" font-weight="720" text-anchor="start">Scheduler</text>
<line x1="175.0" y1="176.0" x2="175.0" y2="610.0" stroke="#c3cad5" stroke-width="2.2" stroke-linecap="round"/>
<rect x="310.0" y="120.0" width="170.0" height="56.0" rx="8" fill="#ffffff" stroke="#d5dce6" filter="url(#shadow)"/>
<rect x="310.0" y="120.0" width="5" height="56.0" rx="2.5" fill="#2563eb"/>
<text x="326.0" y="145.0" fill="#15181d" font-family="Segoe UI, Arial, sans-serif" font-size="14" font-weight="720" text-anchor="start">Dashboard</text>
<line x1="395.0" y1="176.0" x2="395.0" y2="610.0" stroke="#c3cad5" stroke-width="2.2" stroke-linecap="round"/>
<rect x="560.0" y="120.0" width="170.0" height="56.0" rx="8" fill="#ffffff" stroke="#d5dce6" filter="url(#shadow)"/>
<rect x="560.0" y="120.0" width="5" height="56.0" rx="2.5" fill="#2563eb"/>
<text x="576.0" y="145.0" fill="#15181d" font-family="Segoe UI, Arial, sans-serif" font-size="14" font-weight="720" text-anchor="start">telos_dashboard.py</text>
<line x1="645.0" y1="176.0" x2="645.0" y2="610.0" stroke="#c3cad5" stroke-width="2.2" stroke-linecap="round"/>
<rect x="830.0" y="120.0" width="170.0" height="56.0" rx="8" fill="#ffffff" stroke="#d5dce6" filter="url(#shadow)"/>
<rect x="830.0" y="120.0" width="5" height="56.0" rx="2.5" fill="#2563eb"/>
<text x="846.0" y="145.0" fill="#15181d" font-family="Segoe UI, Arial, sans-serif" font-size="14" font-weight="720" text-anchor="start">Daily loop scripts</text>
<line x1="915.0" y1="176.0" x2="915.0" y2="610.0" stroke="#c3cad5" stroke-width="2.2" stroke-linecap="round"/>
<rect x="1100.0" y="120.0" width="170.0" height="56.0" rx="8" fill="#ffffff" stroke="#d5dce6" filter="url(#shadow)"/>
<rect x="1100.0" y="120.0" width="5" height="56.0" rx="2.5" fill="#2563eb"/>
<text x="1116.0" y="145.0" fill="#15181d" font-family="Segoe UI, Arial, sans-serif" font-size="14" font-weight="720" text-anchor="start">Pipeline + files</text>
<line x1="1185.0" y1="176.0" x2="1185.0" y2="610.0" stroke="#c3cad5" stroke-width="2.2" stroke-linecap="round"/>
<line x1="175.0" y1="220.0" x2="915.0" y2="220.0" stroke="#748094" stroke-width="2.2" stroke-linecap="round" marker-end="url(#arrow)"/>
<text x="545.0" y="210.0" fill="#657080" font-family="Segoe UI, Arial, sans-serif" font-size="12" font-weight="500" text-anchor="middle">daily trigger starts data collection</text>
<line x1="395.0" y1="280.0" x2="645.0" y2="280.0" stroke="#748094" stroke-width="2.2" stroke-linecap="round" marker-end="url(#arrow)"/>
<text x="520.0" y="270.0" fill="#657080" font-family="Segoe UI, Arial, sans-serif" font-size="12" font-weight="500" text-anchor="middle">poll status</text>
<line x1="645.0" y1="340.0" x2="915.0" y2="340.0" stroke="#748094" stroke-width="2.2" stroke-linecap="round" marker-end="url(#arrow)"/>
<text x="780.0" y="330.0" fill="#657080" font-family="Segoe UI, Arial, sans-serif" font-size="12" font-weight="500" text-anchor="middle">read status/logs</text>
<line x1="915.0" y1="400.0" x2="1185.0" y2="400.0" stroke="#748094" stroke-width="2.2" stroke-linecap="round" marker-end="url(#arrow)"/>
<text x="1050.0" y="390.0" fill="#657080" font-family="Segoe UI, Arial, sans-serif" font-size="12" font-weight="500" text-anchor="middle">scan, deep, domains, worldview, dream</text>
<line x1="1185.0" y1="470.0" x2="645.0" y2="470.0" stroke="#748094" stroke-width="2.2" stroke-linecap="round" marker-end="url(#arrow)"/>
<text x="915.0" y="460.0" fill="#657080" font-family="Segoe UI, Arial, sans-serif" font-size="12" font-weight="500" text-anchor="middle">write reports, db, status</text>
<line x1="395.0" y1="540.0" x2="645.0" y2="540.0" stroke="#748094" stroke-width="2.2" stroke-linecap="round" marker-end="url(#arrow)"/>
<text x="520.0" y="530.0" fill="#657080" font-family="Segoe UI, Arial, sans-serif" font-size="12" font-weight="500" text-anchor="middle">poll status and reports</text>
<rect x="520.0" y="600.0" width="250.0" height="62.0" rx="8" fill="#ffffff" stroke="#d5dce6" filter="url(#shadow)"/>
<rect x="520.0" y="600.0" width="5" height="62.0" rx="2.5" fill="#c2413b"/>
<text x="536.0" y="625.0" fill="#15181d" font-family="Segoe UI, Arial, sans-serif" font-size="15" font-weight="720" text-anchor="start">Single-run guard</text>
<text x="536.0" y="648.0" fill="#657080" font-family="Segoe UI, Arial, sans-serif" font-size="12" font-weight="500" text-anchor="start">skip or report running if</text>
<text x="536.0" y="665.0" fill="#657080" font-family="Segoe UI, Arial, sans-serif" font-size="12" font-weight="500" text-anchor="start">active</text>
</svg>
